<svg xmlns="http://www.w3.org/2000/svg" viewBox="0 0 197.32 136.56"><defs><style>.cls-1{fill:none;stroke:#000;stroke-linecap:round;stroke-linejoin:round;stroke-width:4px;}.cls-2{fill:#fff;stroke:#1d1d1b;stroke-miterlimit:10;stroke-width:5px;}</style></defs><g id="Calque_2" data-name="Calque 2"><g id="Calque_1-2" data-name="Calque 1"><path class="cls-1" d="M117.64,8.32c1.43.24,2.75,1.24,4.3.62.11-.84-.9-1.37-.55-2.27,3-.66,4.11.48,3.43,3.46,4.05,1.76,8.66-1.83,13.1.45,5.24,1,9.71,3.74,14.3,6.2,2.36,2.7,5.43,5.66,6.62,8.92.51,4.21-6.37,7.94-6.59,13.14a4.2,4.2,0,0,0,.05,3.25c2,2.62-.07,3.93-.46,6.42,23.29-1.19,9.94,4.46,24,10.55,4.54,6,10.32-4.38,12.85-7.49,1.91-1.76,2.71,2.22,4.68,2.44,2.32,1.26-.85,3.8.59,5.73,1.25,2.58-3.4,3.86-.73,6.2-2,.89-1.45,3.17-2.42,4.7-.53.83-.09,2.16,1.53,2.43a3.25,3.25,0,0,1,2.26,5.19"/><path class="cls-1" d="M129.31,124.85c2.54-3-1.23-4.65-1.23-7.37-4.24-1-4.61-2.61-1.63-7.17-2-2.17-4.63-2.92-6.57-1.84-13.59-5.83-8.56-13-12.59-22.43-1.51,1.62-4.41,1.09-5.42,3.6,2.31,2.41-3.72,6.41-5.74,6.91-6.73,2.82,7.1,9.67-3.66,12-3.17,1.12-.09,7.4-4.93,6.86-2.41.11-2.87.58-3.08,3.07,0,.48-.13,1-.21,1.52-5.89,0-8.15-2.75-13.46-3.87-1.41,1.19-7.22,6.84-8.74,4.7a2.42,2.42,0,0,0-3.37.33c-1,1.54-3.3.57-3.58,2.51-1.36-.67-2.75-.85-4,.73-2.31-2-2.19-4.55-3.52-6.56-1.16-2.15-2.67-4-4-6.24-1.14.39-2.07,1.22-3.21.44l.93-4.16c-1-.23-1.86-.47-2.77-.66-3.45-.83.16-6.75,1.36-9.1-6.39-2.29,1.11-8.18-3.82-9.74-7.23-1.89-13.94-.46-20.26,3.28-1.44.85-1.41.89-2.88,3.89,1.32,1.1.66,3.87,3.32,3.69-1.77,3.08-5.85,5.25-9,6.68a44.27,44.27,0,0,0-4.91.91C1,103,3.49,99.7,8.52,98.8c3.42-7-1.88-8.22-.65-13.89,1.13-2,3.73-3.72.87-5.66,2.74-2.6,4.68-5.88,7.74-7.85,2.89-.76,3.79-3.74,5.94-5.33C22.33,63,25.15,60,22.62,57c3-3.82,8.18-3.62,11.67-7.09a5.21,5.21,0,0,0-.44-2.14c6.44-5,10.18-11.7,15.19-16.7-1.83-2.27-4.95.15-7.37-.82.08-3,5.79-5.17,4.08-8.45,2.39-.86,5.6-.25,8.26.29l-.45,2.36c.58,1.21,2.48.94,2.9,2.46,2.47-1.66,8.83.41,7.76-4.26,1.08-1.9,5.1-.2,2.33-4.25A67.43,67.43,0,0,0,75.35,15c1.33,1.51,1.33,1.51-.3,3.39"/><path class="cls-1" d="M194.64,78.57c-.55,1.36-1.49,1.57-2.65.81-1.37-1.52-3.23.09-4.53-1.2-.9-.7-1.88-1.28-2.9-2,.62-1.09.07-2.87-1.59-1.76a1.7,1.7,0,0,1-.62.19c-5.61-1.17-8.57,11.07-4.31,12.46,1.26-.52,4.26.59,3.07,2.08-4.72,3.88,6.13,10.09-3.5,10.58-.61.26-.86-.68-.34-2.51-1.91-1.15-3.81-2.41-2.94-5.23-2.54-3.27-10.13-.55-11.57,1.88-6.42,6.91-11.86-5.39-11.79-11.06-1.17,0-1.16,1.25-2.09,1.55-1.34-1.32-2.88-2.14-4.41-1.44-2.57,3-.73,5.89-.31,8.69,1.83,7.3-6.24,11.15-7.85,16.39.1,1.07.17,2.06-1.06,2.45-1.59.5-2.06,1.38-1.24,2.89.13.23-.12.6.22.81-.76,1-2.31,1.15-2.68,2.57,2.45.38,3.41,2.67,5.38,3.91-1.5,1.65-1.83,3.65-2.74,5.91-1-2.39-3-1.43-4.47-2"/><path class="cls-1" d="M109.25,16.11c-2.2-.64-5,.69-6.93-.23-2.45-3.13-6.91-2.24-9.45.23-3.58,2.67-6,2.62-9.43-.21-3.65,1-5.54,4.4-9.83,2.46"/><path class="cls-1" d="M116.62,8.94a23.67,23.67,0,0,0,2.63-4.24c-1.46-.52-2.44-2.41-4.25-.8L114.08,2c-3.4.14-6,3.6-8.12,5.91-3,5.25,5.16,3.72,7.77,2.49.15,1.23-.5,2.31-.79,3.43-2,0-4.66-1.53-4.92,1.66"/><path class="cls-2" d="M63.92,63.05l30.33,67.42,30.34-67.42a41.16,41.16,0,0,0,3.62-16.89h0c0-25.65-15.2-39-34-39S60.3,20.51,60.3,46.16h0A41.16,41.16,0,0,0,63.92,63.05Z"/><circle class="cls-2" cx="94.25" cy="41.89" r="12.09"/></g></g></svg>