<svg xmlns="http://www.w3.org/2000/svg" viewBox="0 0 126.66 135.18"><defs><style>.cls-1{fill:#fff;}.cls-1,.cls-3{stroke:#1d1d1b;stroke-miterlimit:10;stroke-width:5px;}.cls-2,.cls-3{fill:none;}</style></defs><g id="Calque_2" data-name="Calque 2"><g id="Calque_1-2" data-name="Calque 1"><path class="cls-1" d="M30.9,1h8.45a2.81,2.81,0,0,1,2.81,2.81V29.45a2.81,2.81,0,0,1-2.81,2.81H30.9a0,0,0,0,1,0,0V1A0,0,0,0,1,30.9,1Z" transform="translate(-1.62 29.13) rotate(-42.62)"/><path class="cls-1" d="M104,84.76h8.49a2.77,2.77,0,0,1,2.77,2.77v25.7a2.77,2.77,0,0,1-2.77,2.77H104a0,0,0,0,1,0,0V84.76A0,0,0,0,1,104,84.76Z" transform="translate(-38.77 91.73) rotate(-39.15)"/><path class="cls-2" d="M70.35,106,25.1,52.48c1.29,9,9.87,22.18,17.76,31.17S61.55,103.53,70.35,106Z"/><path class="cls-1" d="M25.1,52.48c-1.22-8.5,4.39-12.24,9.64-16.85L16,15.72c-4.57,4-11.17,9.15-12.66,15.38"/><path class="cls-1" d="M85,132.54c6.37-.67,16.72-9.73,21.29-13.74L90.17,98.64c-5.26,4.61-11.55,9.66-19.82,7.35"/><path class="cls-3" d="M3.34,31.1C-.92,48.91,11.45,74.05,29.87,95S66.8,134.45,85,132.54"/><path class="cls-3" d="M70.35,106c-8.8-2.46-19.6-13.35-27.49-22.34S26.39,61.52,25.1,52.48"/><path class="cls-3" d="M59.09,39.21A32.54,32.54,0,0,1,91.62,71.74"/><path class="cls-3" d="M59.17,21.87A49.87,49.87,0,0,1,109,71.74"/><path class="cls-3" d="M59.09,6.67a65.08,65.08,0,0,1,65.07,65.07"/></g></g></svg>