<svg xmlns="http://www.w3.org/2000/svg" viewBox="0 0 195.06 131.93"><defs><style>.cls-1{fill:#fff;stroke:#1d1d1b;stroke-miterlimit:10;stroke-width:5px;}</style></defs><g id="Calque_2" data-name="Calque 2"><g id="Calque_1-2" data-name="Calque 1"><path d="M51.85,128c-.06-.61-.17-1.21-.17-1.82q0-26.37,0-52.73c0-.61.11-1.22.17-1.83H83.13a5.49,5.49,0,0,0,1.35,1c8.36,2.71,12.76,8.82,12.09,16.87-.7,8.43-5.85,14-14.7,15-5.08.6-10.26.35-15.4.47-.8,0-1.6,0-2.68,0v23Zm12-33.11c5.32-.25,10.35-.46,15.37-.75a6.06,6.06,0,0,0,2.13-.73,5.34,5.34,0,0,0,3.21-5.83c-.39-3-2.52-4.94-6.4-5.23C73.83,82,69.52,82,65.21,82a1.84,1.84,0,0,0-1.34,1.2C63.76,86.92,63.81,90.6,63.81,94.89Z"/><path d="M166.67,71.62l-.06,45a7.41,7.41,0,0,0,.21,1.12h28.24V128H154.32c0-4,.09-7.92.09-11.88q0-21,0-42c0-.82-.06-1.64-.09-2.46Z"/><path d="M41.15,71.62V81.83c-1.06.06-1.85.13-2.64.13-8.07,0-16.15,0-24.22,0-1.58,0-2.19.42-2.12,2.07.15,3.55.12,7.1.17,10.66l.07-.07L0,94.67v-23Z"/><path d="M0,105c3.42,0,6.85.13,10.27.05,1.51,0,2,.35,2,1.95-.12,3.48,0,7,0,10.65H41.15V128H0Z"/><path d="M145.27,71.62V82h-2.41c-8,0-16,0-24,0-1.86,0-2.36.6-2.3,2.36.12,3.34,0,6.68,0,10.15h-12V71.62Z"/><path d="M104.53,128V105.06c3.82,0,7.42,0,11,.06.35,0,1,.89,1,1.36,0,7.18,0,14.35-.08,21.52Z"/><path d="M142.82,104.85h-25.9V94.77h25.9Z"/><path d="M12.34,94.67H38.48v10.15H12.41V94.6Z"/><path class="cls-1" d="M64.65,58.42,95,125.84l30.33-67.42a41.17,41.17,0,0,0,3.63-16.89h0c0-25.65-15.21-39-34-39s-34,13.38-34,39h0A41.17,41.17,0,0,0,64.65,58.42Z"/><circle class="cls-1" cx="94.98" cy="37.26" r="12.09"/></g></g></svg>